<svg id="Filled" enable-background="new 0 0 64 64" height="512" viewBox="0 0 64 64" width="512" xmlns="http://www.w3.org/2000/svg"><circle cx="60" cy="8" fill="#ffde66" r="2"/><path d="m60 5c-1.304 0-2.415.836-2.828 2h-7.172c-.552 0-1 .447-1 1v7h2v-6h6.172c.413 1.164 1.524 2 2.828 2 1.654 0 3-1.346 3-3s-1.346-3-3-3zm0 4c-.551 0-1-.448-1-1s.449-1 1-1 1 .448 1 1-.449 1-1 1z"/><circle cx="4" cy="8" fill="#ffd642" r="2"/><path d="m14 7h-7.172c-.413-1.164-1.524-2-2.828-2-1.654 0-3 1.346-3 3s1.346 3 3 3c1.304 0 2.415-.836 2.828-2h6.172v6h2v-7c0-.553-.448-1-1-1zm-10 2c-.551 0-1-.448-1-1s.449-1 1-1 1 .448 1 1-.449 1-1 1z"/><circle cx="24" cy="3" fill="#ffd642" r="2"/><circle cx="40" cy="3" fill="#ffd642" r="2"/><path d="m40 0c-1.304 0-2.415.836-2.828 2h-10.344c-.413-1.164-1.524-2-2.828-2-1.654 0-3 1.346-3 3s1.346 3 3 3c1.304 0 2.415-.836 2.828-2h4.172v6h2v-6h4.172c.413 1.164 1.524 2 2.828 2 1.654 0 3-1.346 3-3s-1.346-3-3-3zm-16 4c-.551 0-1-.448-1-1s.449-1 1-1 1 .448 1 1-.449 1-1 1zm16 0c-.551 0-1-.448-1-1s.449-1 1-1 1 .448 1 1-.449 1-1 1z"/><circle cx="60" cy="56" fill="#ffd642" r="2"/><path d="m60 53c-1.304 0-2.415.836-2.828 2h-6.172v-6h-2v7c0 .553.448 1 1 1h7.172c.413 1.164 1.524 2 2.828 2 1.654 0 3-1.346 3-3s-1.346-3-3-3zm0 4c-.551 0-1-.448-1-1s.449-1 1-1 1 .448 1 1-.449 1-1 1z"/><circle cx="4" cy="56" fill="#ffd642" r="2"/><path d="m13 49v6h-6.172c-.413-1.164-1.524-2-2.828-2-1.654 0-3 1.346-3 3s1.346 3 3 3c1.304 0 2.415-.836 2.828-2h7.172c.552 0 1-.447 1-1v-7zm-9 8c-.551 0-1-.448-1-1s.449-1 1-1 1 .448 1 1-.449 1-1 1z"/><circle cx="24" cy="61" fill="#ffd642" r="2"/><circle cx="40" cy="61" fill="#ffd642" r="2"/><path d="m40 58c-1.304 0-2.415.836-2.828 2h-4.172v-6h-2v6h-4.172c-.413-1.164-1.524-2-2.828-2-1.654 0-3 1.346-3 3s1.346 3 3 3c1.304 0 2.415-.836 2.828-2h10.344c.413 1.164 1.524 2 2.828 2 1.654 0 3-1.346 3-3s-1.346-3-3-3zm-16 4c-.551 0-1-.448-1-1s.449-1 1-1 1 .448 1 1-.449 1-1 1zm16 0c-.551 0-1-.448-1-1s.449-1 1-1 1 .448 1 1-.449 1-1 1z"/><path d="m56 41.235c2.805-2.658 5.178-5.776 7-9.235-5.897-11.195-17.564-18.821-31-18.821s-25.103 7.626-31 18.821c5.897 11.195 17.564 18.821 31 18.821 8.332 0 15.983-2.932 22-7.83" fill="#fff5d1"/><circle cx="32.142" cy="32" fill="#ffd642" r="15"/><path d="m32 51.821c-13.379 0-25.596-7.416-31.885-19.355-.154-.291-.154-.641 0-.932 6.289-11.939 18.506-19.355 31.885-19.355s25.596 7.416 31.885 19.355c.154.291.154.64 0 .932-1.867 3.546-4.289 6.74-7.197 9.494l-1.375-1.451c2.621-2.482 4.823-5.343 6.553-8.509-6.012-11.007-17.407-17.821-29.866-17.821s-23.854 6.814-29.865 17.821c6.011 11.007 17.406 17.821 29.865 17.821 7.754 0 15.343-2.701 21.369-7.605l1.263 1.551c-6.382 5.194-14.419 8.054-22.632 8.054z"/><path d="m40 29c0-4.418-3.582-8-8-8s-8 3.582-8 8c0 2.558 1.205 4.83 3.074 6.295l1.926 7.705h6l1.926-7.705c1.869-1.465 3.074-3.737 3.074-6.295z" fill="#fffefa"/><path d="m32 20c-4.962 0-9 4.037-9 9 0 2.661 1.156 5.142 3.184 6.859l1.846 7.383c.111.446.511.758.97.758h6c.459 0 .859-.312.97-.758l1.846-7.383c2.028-1.717 3.184-4.198 3.184-6.859 0-4.963-4.038-9-9-9zm4.31 14.508c-.175.138-.299.329-.354.545l-1.737 6.947h-4.438l-.75-3h4.969v-2h-5.469l-.487-1.947c-.054-.216-.178-.407-.354-.545-1.71-1.341-2.69-3.348-2.69-5.508 0-3.859 3.14-7 7-7s7 3.141 7 7c0 2.16-.98 4.167-2.69 5.508z"/><path d="m36.707 27.707-1.414-1.414-3.293 3.293-3.293-3.293-1.414 1.414 3.707 3.707v3.586h2v-3.586z"/><path d="m31.949 48.018c-2.693 0-5.402-.677-7.858-2.068l.985-1.74c5.493 3.11 12.434 2.137 16.881-2.367 4.638-4.698 5.368-12.089 1.736-17.574l1.668-1.104c4.151 6.27 3.318 14.716-1.981 20.082-3.092 3.132-7.242 4.771-11.431 4.771z"/><path d="m18.626 40.849c-4.15-6.27-3.317-14.716 1.981-20.083 5.083-5.149 13.02-6.258 19.295-2.7l-.986 1.74c-5.492-3.115-12.436-2.142-16.886 2.364-4.637 4.698-5.368 12.089-1.736 17.575z"/><path d="m40.91 25.07-.707-4.949c-.045-.312.06-.626.283-.849.222-.223.533-.329.849-.283l4.95.707-.285 1.981-3.629-.519.518 3.629z"/><path d="m22.808 45.021c-.047 0-.094-.003-.142-.01l-4.95-.707.284-1.981 3.629.519-.518-3.629 1.979-.283.707 4.949c.045.312-.06.626-.283.849-.188.188-.443.293-.706.293z"/></svg>